<?xml version="1.0" encoding="UTF-8" standalone="no"?><!DOCTYPE svg PUBLIC "-//W3C//DTD SVG 1.1//EN" "http://www.w3.org/Graphics/SVG/1.1/DTD/svg11.dtd"><svg width="100%" height="100%" viewBox="0 0 2000 2000" version="1.1" xmlns="http://www.w3.org/2000/svg" xmlns:xlink="http://www.w3.org/1999/xlink" xml:space="preserve" xmlns:serif="http://www.serif.com/" style="fill-rule:evenodd;clip-rule:evenodd;stroke-linejoin:round;stroke-miterlimit:2;"><rect id="Plan-de-travail9" serif:id="Plan de travail9" x="0" y="0" width="2000" height="2000" style="fill:none;"/><g id="Plan-de-travail91" serif:id="Plan de travail9"><path d="M305.818,1063.562l85.696,-127.049l153.249,0l42.848,-63.525l-153.249,0l85.696,-127.049l306.498,0l-342.733,508.123l-306.498,0l85.646,-126.975l153.249,0l42.848,-63.525l-153.249,0Zm383.123,0l85.696,-127.049l689.621,-0l-214.19,317.549l-153.249,0l128.494,-190.5l-536.372,-0Zm637.752,190.5l257.038,-381.074l-766.246,0l85.696,-127.049l919.495,-0l-342.733,508.123l-153.249,0Zm-306.498,0l-459.747,-0l85.646,-126.975l459.747,0l-85.646,126.975Z" style="fill:#58a4a7;"/></g></svg>