<?xml version="1.0" encoding="UTF-8"?>
<svg xmlns="http://www.w3.org/2000/svg" xmlns:xlink="http://www.w3.org/1999/xlink" width="80px" height="37px" viewBox="0 0 81 37" version="1.1">
<g id="surface1">
<path style=" stroke:none;fill-rule:nonzero;fill:rgb(0%,0%,0%);fill-opacity:1;" d="M 0.386719 0.503906 C 0.53125 0.714844 0.910156 1.261719 1.222656 1.714844 C 1.542969 2.167969 1.886719 2.664062 1.988281 2.816406 C 2.09375 2.972656 2.589844 3.6875 3.089844 4.410156 C 4.886719 7.007812 6.261719 8.972656 6.335938 9.066406 C 6.410156 9.144531 7.75 9.15625 17.824219 9.140625 L 29.238281 9.128906 L 29.746094 8.183594 C 30.027344 7.664062 30.253906 7.214844 30.246094 7.1875 C 30.246094 7.160156 29.945312 7.0625 29.585938 6.976562 C 28.90625 6.8125 28.582031 6.738281 24.792969 5.851562 C 23.5625 5.5625 22.09375 5.21875 21.515625 5.085938 C 20.949219 4.949219 20.011719 4.730469 19.4375 4.601562 C 17.574219 4.164062 14.441406 3.429688 13.40625 3.183594 C 12.847656 3.058594 11.789062 2.804688 11.050781 2.632812 C 10.308594 2.460938 9.425781 2.253906 9.089844 2.175781 C 8.753906 2.09375 7.925781 1.898438 7.253906 1.746094 C 6.582031 1.59375 5.523438 1.339844 4.898438 1.195312 C 1.824219 0.464844 0.335938 0.121094 0.234375 0.121094 C 0.128906 0.121094 0.152344 0.175781 0.386719 0.503906 Z M 0.386719 0.503906 "/>
<path style=" stroke:none;fill-rule:nonzero;fill:rgb(0%,0%,0%);fill-opacity:1;" d="M 63.726562 2.609375 C 63.101562 2.726562 62.042969 2.914062 61.367188 3.039062 C 60.695312 3.15625 59.703125 3.332031 59.164062 3.429688 C 58.625 3.527344 56.949219 3.828125 55.429688 4.097656 C 53.917969 4.367188 52.125 4.6875 51.453125 4.808594 C 50.777344 4.929688 49.542969 5.152344 48.695312 5.300781 C 47.167969 5.570312 46.347656 5.714844 42.207031 6.457031 C 40.996094 6.671875 39.871094 6.867188 39.710938 6.890625 C 39.550781 6.917969 39.367188 6.984375 39.304688 7.039062 C 39.246094 7.09375 38.976562 7.457031 38.71875 7.839844 C 38.457031 8.226562 38.144531 8.675781 38.03125 8.832031 C 37.917969 9 37.84375 9.128906 37.875 9.128906 C 37.898438 9.128906 42.488281 9.128906 48.078125 9.128906 L 58.226562 9.128906 L 60.628906 6.78125 C 61.945312 5.488281 63.492188 3.976562 64.0625 3.410156 C 64.765625 2.726562 65.058594 2.394531 64.980469 2.394531 C 64.914062 2.402344 64.347656 2.5 63.726562 2.609375 Z M 63.726562 2.609375 "/>
<path style=" stroke:none;fill-rule:nonzero;fill:rgb(0%,0%,0%);fill-opacity:1;" d="M 30.945312 8.699219 L 30.148438 10.292969 L 18.628906 10.292969 C 12.285156 10.292969 7.101562 10.304688 7.101562 10.320312 C 7.101562 10.339844 7.289062 10.597656 7.515625 10.890625 C 7.742188 11.1875 8.386719 12.019531 8.929688 12.742188 C 9.480469 13.464844 9.964844 14.09375 10.007812 14.136719 C 10.082031 14.21875 10.316406 14.207031 12 14.058594 C 13.375 13.9375 15.339844 13.769531 16.34375 13.691406 C 17 13.636719 17.824219 13.570312 18.179688 13.539062 C 18.535156 13.5 19.96875 13.378906 21.363281 13.261719 C 22.761719 13.144531 25.054688 12.949219 26.46875 12.832031 C 27.878906 12.710938 29.046875 12.625 29.058594 12.644531 C 29.078125 12.660156 29.011719 12.820312 28.90625 13 C 28.808594 13.175781 28.472656 13.820312 28.160156 14.425781 C 27.847656 15.03125 27.40625 15.882812 27.179688 16.324219 C 26.953125 16.761719 26.542969 17.554688 26.265625 18.082031 L 25.773438 19.050781 L 29.675781 19.050781 L 30.199219 18.265625 C 30.480469 17.839844 31.421875 16.410156 32.292969 15.101562 C 33.152344 13.78125 33.882812 12.6875 33.90625 12.660156 C 33.949219 12.621094 35.953125 12.816406 42.148438 13.476562 C 43.089844 13.574219 44.289062 13.699219 44.808594 13.753906 C 45.328125 13.800781 46.121094 13.886719 46.554688 13.9375 C 46.996094 13.984375 48.425781 14.136719 49.738281 14.273438 C 51.054688 14.40625 52.210938 14.53125 52.308594 14.550781 C 52.503906 14.578125 52.417969 14.652344 53.929688 13.207031 C 54.25 12.894531 55.050781 12.136719 55.707031 11.515625 C 56.359375 10.890625 56.910156 10.363281 56.917969 10.339844 C 56.929688 10.308594 52.160156 10.292969 46.316406 10.292969 C 40.46875 10.292969 35.6875 10.277344 35.6875 10.265625 C 35.6875 10.242188 37.261719 7.910156 37.621094 7.394531 L 37.832031 7.105469 L 31.734375 7.105469 Z M 30.945312 8.699219 "/>
<path style=" stroke:none;fill-rule:nonzero;fill:rgb(0%,0%,0%);fill-opacity:1;" d="M 32.046875 19.726562 C 30.601562 19.761719 30.34375 19.78125 30.007812 19.890625 C 29.347656 20.109375 28.996094 20.492188 28.789062 21.207031 C 28.660156 21.648438 28.605469 24.125 28.710938 24.820312 C 28.851562 25.828125 29.207031 26.324219 29.984375 26.59375 C 30.382812 26.734375 30.460938 26.738281 32.75 26.757812 C 35.328125 26.78125 35.867188 26.738281 36.410156 26.480469 C 37.070312 26.167969 37.28125 25.667969 37.324219 24.238281 L 37.359375 23.277344 L 32.8125 23.277344 L 32.8125 23.953125 L 34.636719 23.964844 L 36.453125 23.984375 L 36.433594 24.535156 C 36.40625 25.488281 36.125 25.820312 35.230469 25.96875 C 35.019531 26.003906 33.949219 26.023438 32.75 26.015625 C 30.890625 25.996094 30.601562 25.984375 30.332031 25.886719 C 29.941406 25.746094 29.824219 25.644531 29.671875 25.300781 C 29.5625 25.0625 29.542969 24.871094 29.519531 23.828125 C 29.488281 22.421875 29.574219 21.421875 29.75 21.078125 C 30.042969 20.496094 30.339844 20.449219 33.367188 20.472656 C 35.542969 20.492188 35.671875 20.496094 35.898438 20.621094 C 36.183594 20.765625 36.347656 21.054688 36.40625 21.496094 L 36.441406 21.808594 L 37.238281 21.808594 L 37.199219 21.367188 C 37.152344 20.804688 36.917969 20.3125 36.574219 20.074219 C 36.082031 19.738281 34.996094 19.652344 32.046875 19.726562 Z M 32.046875 19.726562 "/>
<path style=" stroke:none;fill-rule:nonzero;fill:rgb(0%,0%,0%);fill-opacity:1;" d="M 41.382812 19.726562 C 40.824219 19.75 40.285156 19.796875 40.1875 19.835938 C 39.546875 20.039062 39.183594 20.394531 38.980469 21.011719 C 38.871094 21.355469 38.851562 21.601562 38.824219 22.867188 C 38.785156 24.988281 38.921875 25.722656 39.445312 26.207031 C 39.960938 26.683594 40.519531 26.769531 43.125 26.769531 C 45.894531 26.769531 46.523438 26.671875 47.03125 26.175781 C 47.507812 25.714844 47.621094 25.269531 47.667969 23.613281 C 47.722656 21.800781 47.570312 20.828125 47.160156 20.335938 C 46.957031 20.097656 46.457031 19.867188 45.972656 19.785156 C 45.453125 19.699219 42.671875 19.664062 41.382812 19.726562 Z M 46.222656 20.65625 C 46.4375 20.777344 46.535156 20.890625 46.617188 21.085938 C 46.773438 21.488281 46.84375 22.664062 46.78125 23.957031 C 46.726562 25.226562 46.660156 25.453125 46.277344 25.710938 C 45.917969 25.960938 45.695312 25.984375 43.757812 26.015625 C 40.746094 26.058594 40.175781 25.960938 39.851562 25.332031 L 39.699219 25.023438 L 39.699219 23.308594 C 39.699219 21.429688 39.730469 21.21875 40.039062 20.859375 C 40.210938 20.664062 40.414062 20.5625 40.769531 20.503906 C 40.855469 20.484375 42.054688 20.480469 43.433594 20.484375 L 45.941406 20.492188 Z M 46.222656 20.65625 "/>
<path style=" stroke:none;fill-rule:nonzero;fill:rgb(0%,0%,0%);fill-opacity:1;" d="M 10.285156 23.210938 L 10.285156 26.707031 L 11.078125 26.707031 L 11.09375 25.3125 L 11.109375 23.921875 L 13.652344 23.902344 C 15.359375 23.890625 16.296875 23.910156 16.507812 23.953125 C 16.796875 24.011719 16.949219 24.125 17.214844 24.460938 C 17.21875 24.464844 17.238281 24.96875 17.257812 25.574219 L 17.292969 26.679688 L 17.710938 26.695312 L 18.121094 26.714844 L 18.121094 25.6875 C 18.121094 24.589844 18.066406 24.253906 17.855469 24.019531 C 17.699219 23.847656 17.292969 23.652344 17.097656 23.644531 C 16.851562 23.644531 16.945312 23.554688 17.261719 23.480469 C 17.917969 23.320312 18.167969 22.964844 18.222656 22.113281 C 18.308594 20.839844 17.9375 20.125 17.046875 19.871094 C 16.730469 19.78125 16.277344 19.761719 13.484375 19.738281 L 10.285156 19.714844 Z M 16.816406 20.632812 C 16.960938 20.707031 17.121094 20.832031 17.171875 20.914062 C 17.410156 21.273438 17.402344 22.382812 17.152344 22.71875 C 17.089844 22.8125 16.90625 22.949219 16.734375 23.03125 L 16.4375 23.1875 L 11.109375 23.1875 L 11.09375 21.898438 C 11.085938 21.195312 11.09375 20.582031 11.109375 20.535156 C 11.136719 20.464844 11.636719 20.453125 13.847656 20.472656 C 16.527344 20.492188 16.558594 20.492188 16.816406 20.632812 Z M 16.816406 20.632812 "/>
<path style=" stroke:none;fill-rule:nonzero;fill:rgb(0%,0%,0%);fill-opacity:1;" d="M 22.746094 19.953125 C 22.667969 20.082031 22.289062 20.722656 21.902344 21.378906 C 21.515625 22.035156 20.820312 23.222656 20.355469 24.011719 C 19.890625 24.804688 19.351562 25.722656 19.152344 26.054688 C 18.953125 26.382812 18.792969 26.664062 18.792969 26.679688 C 18.792969 26.695312 19.011719 26.707031 19.277344 26.707031 L 19.765625 26.707031 L 20.117188 26.078125 C 20.3125 25.734375 20.519531 25.378906 20.585938 25.28125 L 20.695312 25.117188 L 26.195312 25.117188 L 26.308594 25.28125 C 26.371094 25.378906 26.585938 25.734375 26.789062 26.078125 L 27.148438 26.707031 L 27.621094 26.707031 C 27.882812 26.707031 28.097656 26.695312 28.097656 26.683594 C 28.097656 26.671875 27.949219 26.414062 27.765625 26.121094 C 27.589844 25.820312 26.988281 24.816406 26.445312 23.890625 C 24.320312 20.300781 24.101562 19.933594 24.007812 19.828125 C 23.933594 19.742188 23.8125 19.726562 23.410156 19.726562 L 22.894531 19.726562 Z M 24.339844 21.910156 C 24.835938 22.75 25.375 23.652344 25.539062 23.921875 L 25.839844 24.410156 L 24.640625 24.429688 C 23.984375 24.4375 22.90625 24.4375 22.25 24.429688 L 21.058594 24.410156 L 21.566406 23.554688 C 21.839844 23.082031 22.375 22.179688 22.742188 21.542969 C 23.109375 20.914062 23.414062 20.398438 23.421875 20.398438 C 23.433594 20.398438 23.84375 21.078125 24.339844 21.910156 Z M 24.339844 21.910156 "/>
<path style=" stroke:none;fill-rule:nonzero;fill:rgb(0%,0%,0%);fill-opacity:1;" d="M 49.429688 19.773438 C 49.414062 19.792969 49.402344 21.359375 49.402344 23.261719 L 49.402344 26.714844 L 49.816406 26.695312 L 50.226562 26.679688 L 50.226562 23.566406 C 50.226562 21.855469 50.238281 20.460938 50.265625 20.460938 C 50.28125 20.460938 51.726562 21.863281 53.472656 23.585938 L 56.65625 26.707031 L 58.03125 26.707031 L 58.019531 23.230469 L 58 19.753906 L 57.207031 19.753906 L 57.144531 25.980469 L 56.5 25.347656 C 56.148438 25 55.058594 23.933594 54.082031 22.972656 C 53.105469 22.011719 51.960938 20.882812 51.53125 20.472656 L 50.757812 19.71875 L 50.109375 19.730469 C 49.753906 19.738281 49.449219 19.753906 49.429688 19.773438 Z M 49.429688 19.773438 "/>
<path style=" stroke:none;fill-rule:nonzero;fill:rgb(0%,0%,0%);fill-opacity:1;" d="M 59.972656 19.769531 C 59.949219 19.785156 59.929688 21.359375 59.929688 23.261719 L 59.929688 26.707031 L 60.785156 26.707031 L 60.800781 25.097656 L 60.816406 23.492188 L 63.558594 23.472656 L 66.296875 23.460938 L 66.296875 22.789062 L 60.785156 22.789062 L 60.800781 21.636719 L 60.816406 20.492188 L 63.6875 20.460938 L 66.554688 20.429688 L 66.558594 20.09375 L 66.566406 19.753906 L 63.289062 19.738281 C 61.484375 19.730469 59.992188 19.742188 59.972656 19.769531 Z M 59.972656 19.769531 "/>
<path style=" stroke:none;fill-rule:nonzero;fill:rgb(0%,0%,0%);fill-opacity:1;" d="M 68.054688 19.761719 C 68.027344 19.785156 68.011719 21.359375 68.011719 23.261719 L 68.011719 26.707031 L 74.316406 26.707031 L 74.316406 25.972656 L 68.867188 25.972656 L 68.855469 22.863281 L 68.835938 19.753906 L 68.46875 19.738281 C 68.265625 19.726562 68.078125 19.738281 68.054688 19.761719 Z M 68.054688 19.761719 "/>
<path style=" stroke:none;fill-rule:nonzero;fill:rgb(0%,0%,0%);fill-opacity:1;" d="M 72.214844 19.761719 C 72.203125 19.773438 73.085938 20.6875 74.175781 21.789062 L 76.152344 23.785156 L 76.152344 26.714844 L 76.566406 26.695312 L 76.976562 26.679688 L 76.996094 25.207031 L 77.007812 23.738281 L 78.96875 21.777344 C 80.046875 20.699219 80.925781 19.796875 80.925781 19.78125 C 80.925781 19.753906 80.667969 19.738281 80.363281 19.730469 L 79.792969 19.71875 L 78.191406 21.34375 C 77.300781 22.242188 76.566406 22.972656 76.550781 22.972656 C 76.53125 22.972656 75.796875 22.242188 74.914062 21.347656 L 73.3125 19.71875 L 72.777344 19.730469 C 72.480469 19.738281 72.226562 19.75 72.214844 19.761719 Z M 72.214844 19.761719 "/>
<path style=" stroke:none;fill-rule:nonzero;fill:rgb(0%,0%,0%);fill-opacity:1;" d="M 0 23.246094 L 0 26.714844 L 3.355469 26.691406 C 6.238281 26.671875 6.738281 26.660156 6.984375 26.574219 C 7.855469 26.273438 8.222656 25.769531 8.421875 24.625 C 8.5625 23.800781 8.519531 21.820312 8.34375 21.289062 C 8.105469 20.558594 7.78125 20.203125 7.125 19.957031 C 6.769531 19.824219 6.703125 19.816406 3.386719 19.796875 L 0 19.78125 Z M 6.28125 20.527344 C 7.402344 20.730469 7.683594 21.335938 7.632812 23.429688 C 7.601562 24.835938 7.53125 25.140625 7.136719 25.519531 C 6.679688 25.957031 6.542969 25.972656 3.5 25.972656 L 0.855469 25.972656 L 0.855469 20.460938 L 3.386719 20.460938 C 4.929688 20.460938 6.058594 20.484375 6.28125 20.527344 Z M 6.28125 20.527344 "/>
<path style=" stroke:none;fill-rule:nonzero;fill:rgb(0%,0%,0%);fill-opacity:1;" d="M 21.46875 27.699219 C 21.417969 27.78125 21.242188 28.105469 21.078125 28.425781 C 20.691406 29.152344 18.695312 32.921875 18.304688 33.660156 C 17.554688 35.0625 16.902344 36.320312 16.777344 36.558594 L 16.652344 36.816406 L 17.863281 36.816406 L 18.902344 35.207031 C 19.480469 34.324219 20.207031 33.207031 20.519531 32.730469 C 22.214844 30.140625 23.789062 27.726562 23.832031 27.652344 C 23.875 27.578125 23.679688 27.566406 22.71875 27.566406 C 21.570312 27.566406 21.546875 27.566406 21.46875 27.699219 Z M 21.46875 27.699219 "/>
<path style=" stroke:none;fill-rule:nonzero;fill:rgb(0%,0%,0%);fill-opacity:1;" d="M 76.457031 29.773438 C 75.675781 29.863281 75.378906 30.101562 75.394531 30.640625 C 75.394531 30.875 75.429688 30.972656 75.5625 31.113281 C 75.828125 31.390625 76.15625 31.445312 77.683594 31.46875 C 78.984375 31.492188 79.066406 31.5 79.195312 31.621094 C 79.378906 31.792969 79.378906 32.0625 79.1875 32.253906 C 79 32.441406 78.644531 32.484375 77.308594 32.453125 C 76.089844 32.4375 75.90625 32.382812 75.90625 32.039062 C 75.90625 31.867188 75.894531 31.855469 75.660156 31.855469 L 75.417969 31.855469 L 75.417969 32.097656 C 75.417969 32.28125 75.460938 32.386719 75.5625 32.496094 C 75.808594 32.742188 76.140625 32.792969 77.566406 32.785156 C 79.054688 32.785156 79.46875 32.71875 79.695312 32.429688 C 79.964844 32.085938 79.910156 31.535156 79.578125 31.304688 C 79.351562 31.144531 79.125 31.121094 77.578125 31.101562 C 76.371094 31.082031 76.261719 31.078125 76.109375 30.960938 C 75.816406 30.738281 75.863281 30.324219 76.199219 30.195312 C 76.457031 30.097656 78.453125 30.066406 78.816406 30.15625 C 79.082031 30.21875 79.125 30.253906 79.183594 30.425781 C 79.230469 30.617188 79.253906 30.628906 79.507812 30.628906 L 79.777344 30.628906 L 79.734375 30.425781 C 79.664062 30.132812 79.597656 30.027344 79.390625 29.925781 C 79.027344 29.734375 77.46875 29.65625 76.457031 29.773438 Z M 76.457031 29.773438 "/>
<path style=" stroke:none;fill-rule:nonzero;fill:rgb(0%,0%,0%);fill-opacity:1;" d="M 35.027344 29.9375 L 35.046875 30.109375 L 36.042969 30.125 L 37.035156 30.140625 L 37.035156 32.773438 L 37.585938 32.773438 L 37.585938 30.140625 L 39.570312 30.109375 L 39.570312 29.800781 L 37.292969 29.785156 L 35.007812 29.773438 Z M 35.027344 29.9375 "/>
<path style=" stroke:none;fill-rule:nonzero;fill:rgb(0%,0%,0%);fill-opacity:1;" d="M 39.894531 29.808594 C 39.871094 29.832031 39.851562 30.511719 39.851562 31.316406 L 39.851562 32.773438 L 40.394531 32.773438 L 40.414062 32.203125 L 40.433594 31.640625 L 41.976562 31.640625 C 43.445312 31.640625 43.523438 31.644531 43.6875 31.769531 C 43.847656 31.886719 43.859375 31.933594 43.878906 32.339844 L 43.898438 32.773438 L 44.441406 32.773438 L 44.441406 32.382812 C 44.441406 31.898438 44.367188 31.6875 44.167969 31.597656 C 43.972656 31.503906 43.972656 31.46875 44.199219 31.382812 C 44.410156 31.304688 44.503906 31.101562 44.503906 30.707031 C 44.503906 30.328125 44.363281 30.058594 44.085938 29.917969 C 43.878906 29.8125 43.683594 29.800781 41.902344 29.785156 C 40.824219 29.773438 39.917969 29.785156 39.894531 29.808594 Z M 43.835938 30.316406 C 43.984375 30.496094 43.996094 30.949219 43.859375 31.082031 C 43.671875 31.265625 43.304688 31.304688 41.859375 31.289062 L 40.433594 31.273438 L 40.394531 30.132812 L 42.0625 30.152344 L 43.71875 30.167969 Z M 43.835938 30.316406 "/>
<path style=" stroke:none;fill-rule:nonzero;fill:rgb(0%,0%,0%);fill-opacity:1;" d="M 45.238281 31.273438 L 45.238281 32.78125 L 45.5 32.761719 L 45.757812 32.742188 L 45.757812 29.800781 L 45.5 29.785156 L 45.238281 29.765625 Z M 45.238281 31.273438 "/>
<path style=" stroke:none;fill-rule:nonzero;fill:rgb(0%,0%,0%);fill-opacity:1;" d="M 46.644531 31.273438 L 46.644531 32.773438 L 47.136719 32.773438 L 47.148438 31.46875 C 47.167969 30.226562 47.171875 30.167969 47.289062 30.152344 C 47.378906 30.140625 47.675781 30.445312 48.511719 31.449219 L 49.613281 32.765625 L 49.867188 32.765625 L 50.121094 32.773438 L 51.242188 31.457031 C 52.0625 30.480469 52.386719 30.140625 52.472656 30.152344 C 52.582031 30.167969 52.589844 30.242188 52.601562 31.457031 L 52.613281 32.742188 L 52.878906 32.761719 L 53.136719 32.78125 L 53.136719 29.773438 L 52.046875 29.773438 L 50.960938 31.0625 C 50.367188 31.773438 49.859375 32.332031 49.835938 32.300781 C 49.8125 32.277344 49.328125 31.695312 48.757812 31.007812 L 47.722656 29.773438 L 46.644531 29.773438 Z M 46.644531 31.273438 "/>
<path style=" stroke:none;fill-rule:nonzero;fill:rgb(0%,0%,0%);fill-opacity:1;" d="M 55.636719 29.96875 C 55.558594 30.078125 55.074219 30.738281 54.5625 31.4375 C 54.046875 32.136719 53.625 32.722656 53.625 32.742188 C 53.625 32.761719 53.746094 32.773438 53.894531 32.773438 C 54.140625 32.773438 54.179688 32.75 54.367188 32.511719 C 54.480469 32.367188 54.597656 32.234375 54.632812 32.210938 C 54.664062 32.183594 55.398438 32.160156 56.257812 32.160156 L 57.824219 32.160156 L 58.050781 32.46875 C 58.265625 32.753906 58.296875 32.773438 58.550781 32.773438 C 58.707031 32.773438 58.828125 32.761719 58.828125 32.742188 C 58.828125 32.722656 58.539062 32.3125 58.183594 31.835938 C 57.828125 31.359375 57.347656 30.695312 57.109375 30.367188 L 56.671875 29.773438 L 56.226562 29.773438 C 55.785156 29.773438 55.773438 29.777344 55.636719 29.96875 Z M 56.929688 30.953125 C 57.265625 31.40625 57.542969 31.792969 57.542969 31.8125 C 57.542969 31.835938 56.949219 31.855469 56.226562 31.855469 C 55.503906 31.855469 54.910156 31.84375 54.910156 31.824219 C 54.910156 31.730469 56.152344 30.140625 56.226562 30.140625 C 56.273438 30.140625 56.59375 30.507812 56.929688 30.953125 Z M 56.929688 30.953125 "/>
<path style=" stroke:none;fill-rule:nonzero;fill:rgb(0%,0%,0%);fill-opacity:1;" d="M 59.195312 31.265625 L 59.195312 32.773438 L 59.746094 32.773438 L 59.746094 31.609375 L 61.082031 31.617188 C 62.5625 31.617188 62.972656 31.660156 63.09375 31.828125 C 63.144531 31.898438 63.175781 32.105469 63.175781 32.355469 L 63.175781 32.773438 L 63.726562 32.773438 L 63.726562 32.324219 C 63.726562 31.847656 63.640625 31.640625 63.402344 31.554688 C 63.277344 31.503906 63.277344 31.5 63.460938 31.402344 C 63.570312 31.347656 63.6875 31.246094 63.726562 31.1875 C 63.816406 31.003906 63.796875 30.402344 63.6875 30.195312 C 63.503906 29.828125 63.359375 29.800781 61.171875 29.785156 L 59.195312 29.765625 Z M 62.992188 30.21875 C 63.332031 30.390625 63.375 30.960938 63.0625 31.167969 C 62.929688 31.261719 62.683594 31.273438 61.324219 31.289062 L 59.746094 31.308594 L 59.746094 30.140625 L 61.292969 30.140625 C 62.414062 30.140625 62.878906 30.164062 62.992188 30.21875 Z M 62.992188 30.21875 "/>
<path style=" stroke:none;fill-rule:nonzero;fill:rgb(0%,0%,0%);fill-opacity:1;" d="M 65.738281 30.550781 C 65.421875 30.984375 64.9375 31.632812 64.660156 32.007812 C 64.386719 32.375 64.152344 32.699219 64.152344 32.722656 C 64.152344 32.753906 64.277344 32.773438 64.429688 32.773438 C 64.691406 32.773438 64.714844 32.753906 64.925781 32.46875 L 65.144531 32.160156 L 66.710938 32.160156 C 67.582031 32.160156 68.316406 32.183594 68.347656 32.210938 C 68.382812 32.234375 68.5 32.367188 68.617188 32.511719 C 68.800781 32.75 68.84375 32.773438 69.085938 32.773438 C 69.234375 32.773438 69.355469 32.761719 69.355469 32.742188 C 69.355469 32.722656 68.933594 32.136719 68.421875 31.4375 C 67.90625 30.738281 67.421875 30.078125 67.34375 29.96875 C 67.207031 29.777344 67.195312 29.773438 66.753906 29.773438 L 66.308594 29.773438 Z M 67.460938 30.960938 C 67.796875 31.414062 68.070312 31.800781 68.070312 31.816406 C 68.070312 31.835938 67.476562 31.855469 66.753906 31.855469 C 66.03125 31.855469 65.4375 31.835938 65.4375 31.8125 C 65.4375 31.714844 66.675781 30.140625 66.753906 30.140625 C 66.804688 30.140625 67.121094 30.507812 67.460938 30.960938 Z M 67.460938 30.960938 "/>
<path style=" stroke:none;fill-rule:nonzero;fill:rgb(0%,0%,0%);fill-opacity:1;" d="M 69.722656 31.273438 L 69.722656 32.773438 L 70.273438 32.773438 L 70.273438 31.449219 C 70.273438 30.316406 70.289062 30.132812 70.367188 30.15625 C 70.414062 30.175781 71.222656 30.777344 72.167969 31.488281 L 73.886719 32.773438 L 74.804688 32.773438 L 74.804688 29.773438 L 74.253906 29.773438 L 74.253906 31.089844 C 74.253906 31.996094 74.234375 32.40625 74.1875 32.40625 C 74.148438 32.40625 73.335938 31.8125 72.375 31.089844 L 70.625 29.773438 L 69.722656 29.773438 Z M 69.722656 31.273438 "/>
</g>
</svg>
