<svg width="22" height="22" viewBox="0 0 22 22" fill="none" xmlns="http://www.w3.org/2000/svg">
<mask id="path-1-outside-1_612_9688" maskUnits="userSpaceOnUse" x="0" y="0" width="22" height="22" fill="black">
<rect fill="white" width="22" height="22"/>
<path d="M11.009 1.73509C11.071 1.73509 11.1362 1.75241 11.2032 1.77473C13.6499 2.5912 15.6532 4.0493 17.2889 6.02957C18.5476 7.5533 19.4387 9.27157 19.9335 11.192C20.0957 11.8213 20.2035 12.4603 20.2673 13.1247C20.2736 13.3166 20.1606 13.4429 19.9824 13.4429C19.9484 13.4429 19.912 13.4382 19.8738 13.4288C19.0228 13.2153 18.163 13.1008 17.2944 13.1008C16.9983 13.1008 16.7008 13.1142 16.4025 13.1413C15.1218 13.2581 13.9013 13.5989 12.7442 14.1644C12.6866 14.1925 12.6309 14.2253 12.571 14.2468C12.538 14.2589 12.5058 14.2647 12.4749 14.2647C12.4035 14.2647 12.3381 14.2339 12.2816 14.178C12.1814 14.0796 12.183 13.9622 12.2259 13.837C12.3886 13.3629 12.5322 12.8832 12.6432 12.3939C12.9341 11.1124 13.0348 9.81763 12.9485 8.50498C12.7988 6.227 12.0783 4.14749 10.8261 2.24834C10.7388 2.11576 10.6838 1.99001 10.7919 1.84771C10.8557 1.76344 10.9295 1.73509 11.009 1.73509ZM11.009 1C10.6901 1 10.4057 1.14308 10.209 1.40325C10.0371 1.63007 9.968 1.90416 10.0138 2.17535C10.0491 2.38433 10.1459 2.54867 10.2155 2.65421C11.4054 4.45937 12.0791 6.44411 12.2178 8.55381C12.2991 9.79191 12.2021 11.0292 11.9292 12.2311C11.8329 12.6553 11.7034 13.1024 11.5333 13.5981C11.391 14.0129 11.4768 14.4159 11.7688 14.7031C11.9635 14.8945 12.2141 15 12.4752 15C12.5916 15 12.7078 14.9793 12.8203 14.9383C12.9069 14.9068 12.9775 14.8703 13.0291 14.8438C13.0411 14.8375 13.0529 14.8315 13.0652 14.8254C14.1352 14.3022 15.2807 13.9819 16.469 13.8735C16.7419 13.8485 17.0194 13.8359 17.2944 13.8359C18.0788 13.8359 18.887 13.9388 19.6959 14.1418C19.7917 14.1657 19.888 14.178 19.9821 14.178C20.2647 14.178 20.5248 14.0699 20.7139 13.8737C20.9078 13.6729 21.009 13.3983 20.9994 13.1006L20.9986 13.0775L20.9965 13.0544C20.9272 12.3324 20.8115 11.6632 20.6428 11.0082C20.1287 9.01219 19.1902 7.17946 17.853 5.56069C16.9833 4.50768 16.0137 3.60063 14.9717 2.86476C13.8906 2.10132 12.7005 1.49986 11.4342 1.07745C11.3264 1.04148 11.1807 1 11.009 1Z"/>
<path d="M19.8447 16.7603C20.1232 16.7603 20.2793 16.9557 20.2099 17.2227C19.7943 18.8225 18.7762 19.8224 17.1233 20.1792C16.9303 20.221 16.7305 20.2389 16.5292 20.2389H16.5275C14.5081 20.2378 12.4878 20.2373 10.4684 20.2373C8.07167 20.2373 5.67548 20.2381 3.27846 20.2405C3.06336 20.2405 2.93326 20.161 2.8408 19.9765C2.5147 19.3253 2.17974 18.6781 1.85115 18.0283C1.67841 17.6867 1.80603 17.4669 2.19552 17.4509C3.57494 17.3939 4.9549 17.3434 6.3346 17.2891C7.89312 17.2278 9.45136 17.1651 11.4517 17.0854C11.9821 17.0658 12.9546 17.0319 13.9268 16.9942C15.1636 16.9462 16.4002 16.8943 17.6368 16.8447C18.3659 16.8157 19.0951 16.7853 19.8242 16.7606C19.8312 16.7606 19.8381 16.7603 19.8447 16.7603ZM19.8447 16.0005C19.8292 16.0005 19.8134 16.0005 19.7974 16.0014C19.1803 16.0222 18.5544 16.0475 17.949 16.0716L17.6049 16.0855C17.1219 16.1047 16.6391 16.1245 16.156 16.1441C15.4153 16.1742 14.649 16.2054 13.8958 16.2347C13.1843 16.2624 12.4615 16.2884 11.9339 16.3074C11.7374 16.3145 11.5641 16.3207 11.4223 16.3259H11.4196C10.7834 16.3514 10.1921 16.375 9.6313 16.3972C8.41548 16.4458 7.36577 16.4879 6.30304 16.5297C5.79534 16.5497 5.28792 16.569 4.78023 16.5885C3.92235 16.6214 3.03541 16.6553 2.1623 16.6914C1.54471 16.7169 1.26069 17.0387 1.14608 17.2284C1.0312 17.4186 0.880052 17.8188 1.15605 18.3653C1.29418 18.6385 1.43536 18.915 1.57184 19.1826C1.76063 19.5524 1.95579 19.9347 2.14431 20.3111C2.36687 20.7553 2.7691 21 3.2768 21H3.27846C5.52239 20.9978 7.87374 20.9967 10.4676 20.9967C12.2932 20.9967 14.275 20.9973 16.5264 20.9984H16.5284C16.7952 20.9984 17.0513 20.9723 17.2891 20.921C18.2522 20.7132 19.0541 20.3051 19.6731 19.7084C20.2838 19.1199 20.7167 18.3463 20.96 17.4096C21.0525 17.0536 20.9827 16.6946 20.7688 16.4244C20.5548 16.1547 20.2184 16.0005 19.8447 16.0005Z"/>
<path d="M8.45726 3.71078C8.60752 3.71078 8.70679 3.7844 8.79209 3.95371C9.40194 5.16813 9.81327 6.42596 10.0115 7.73456C10.1029 8.33745 10.1329 8.94212 10.1499 9.32544C10.1563 11.0684 9.85577 12.5458 9.262 13.9821C9.17366 14.1958 9.08502 14.2895 8.92839 14.2895C8.84734 14.2895 8.74777 14.2643 8.62088 14.2179C7.85135 13.9359 7.07363 13.7945 6.2874 13.7945C5.68028 13.7945 5.0686 13.8787 4.45177 14.0478C4.39348 14.0638 4.33611 14.0836 4.27631 14.0925C4.24413 14.0973 4.21286 14.0998 4.18281 14.0998C4.07717 14.0998 3.98428 14.0681 3.91507 13.9831C3.82248 13.8694 3.8325 13.7574 3.92843 13.65C4.12483 13.4302 4.32852 13.2152 4.51976 12.9923C6.20939 11.0212 7.30251 8.83804 7.8216 6.45363C7.99433 5.65984 8.07781 4.85717 8.11454 4.05119C8.12365 3.84913 8.20804 3.7415 8.38107 3.71738C8.40839 3.71357 8.43389 3.71154 8.45847 3.71154M8.45726 3C8.38653 3 8.31367 3.00508 8.24052 3.01548C7.7876 3.07844 7.2934 3.37646 7.26396 4.02352C7.2248 4.88788 7.13312 5.64106 6.98408 6.32569C6.48684 8.6111 5.42468 10.7145 3.82764 12.5775C3.71533 12.7085 3.59785 12.8372 3.47339 12.9735C3.39902 13.055 3.32221 13.139 3.24632 13.2241C2.93092 13.5772 2.91757 14.0206 3.21111 14.3819C3.4321 14.654 3.78606 14.8099 4.1819 14.8099C4.26022 14.8099 4.34127 14.8038 4.42293 14.7918C4.53525 14.7753 4.62601 14.7487 4.68642 14.7312C4.69613 14.7284 4.70585 14.7253 4.71586 14.7228C5.24376 14.5781 5.77226 14.5047 6.2868 14.5047C6.95038 14.5047 7.62095 14.6271 8.27937 14.8685C8.44633 14.9297 8.67097 15 8.92808 15C9.24986 15 9.54462 14.8883 9.75832 14.6857C9.88582 14.5649 9.98053 14.4194 10.0652 14.2141C10.7094 12.6557 11.0066 11.1014 10.9999 9.3229V9.31097L10.9993 9.29904C10.9777 8.81088 10.9437 8.23286 10.8548 7.6452C10.6505 6.29573 10.22 4.96125 9.57588 3.67854C9.2793 3.08834 8.74777 3 8.45726 3Z"/>
</mask>
<path d="M11.009 1.73509C11.071 1.73509 11.1362 1.75241 11.2032 1.77473C13.6499 2.5912 15.6532 4.0493 17.2889 6.02957C18.5476 7.5533 19.4387 9.27157 19.9335 11.192C20.0957 11.8213 20.2035 12.4603 20.2673 13.1247C20.2736 13.3166 20.1606 13.4429 19.9824 13.4429C19.9484 13.4429 19.912 13.4382 19.8738 13.4288C19.0228 13.2153 18.163 13.1008 17.2944 13.1008C16.9983 13.1008 16.7008 13.1142 16.4025 13.1413C15.1218 13.2581 13.9013 13.5989 12.7442 14.1644C12.6866 14.1925 12.6309 14.2253 12.571 14.2468C12.538 14.2589 12.5058 14.2647 12.4749 14.2647C12.4035 14.2647 12.3381 14.2339 12.2816 14.178C12.1814 14.0796 12.183 13.9622 12.2259 13.837C12.3886 13.3629 12.5322 12.8832 12.6432 12.3939C12.9341 11.1124 13.0348 9.81763 12.9485 8.50498C12.7988 6.227 12.0783 4.14749 10.8261 2.24834C10.7388 2.11576 10.6838 1.99001 10.7919 1.84771C10.8557 1.76344 10.9295 1.73509 11.009 1.73509ZM11.009 1C10.6901 1 10.4057 1.14308 10.209 1.40325C10.0371 1.63007 9.968 1.90416 10.0138 2.17535C10.0491 2.38433 10.1459 2.54867 10.2155 2.65421C11.4054 4.45937 12.0791 6.44411 12.2178 8.55381C12.2991 9.79191 12.2021 11.0292 11.9292 12.2311C11.8329 12.6553 11.7034 13.1024 11.5333 13.5981C11.391 14.0129 11.4768 14.4159 11.7688 14.7031C11.9635 14.8945 12.2141 15 12.4752 15C12.5916 15 12.7078 14.9793 12.8203 14.9383C12.9069 14.9068 12.9775 14.8703 13.0291 14.8438C13.0411 14.8375 13.0529 14.8315 13.0652 14.8254C14.1352 14.3022 15.2807 13.9819 16.469 13.8735C16.7419 13.8485 17.0194 13.8359 17.2944 13.8359C18.0788 13.8359 18.887 13.9388 19.6959 14.1418C19.7917 14.1657 19.888 14.178 19.9821 14.178C20.2647 14.178 20.5248 14.0699 20.7139 13.8737C20.9078 13.6729 21.009 13.3983 20.9994 13.1006L20.9986 13.0775L20.9965 13.0544C20.9272 12.3324 20.8115 11.6632 20.6428 11.0082C20.1287 9.01219 19.1902 7.17946 17.853 5.56069C16.9833 4.50768 16.0137 3.60063 14.9717 2.86476C13.8906 2.10132 12.7005 1.49986 11.4342 1.07745C11.3264 1.04148 11.1807 1 11.009 1Z" fill="black"/>
<path d="M19.8447 16.7603C20.1232 16.7603 20.2793 16.9557 20.2099 17.2227C19.7943 18.8225 18.7762 19.8224 17.1233 20.1792C16.9303 20.221 16.7305 20.2389 16.5292 20.2389H16.5275C14.5081 20.2378 12.4878 20.2373 10.4684 20.2373C8.07167 20.2373 5.67548 20.2381 3.27846 20.2405C3.06336 20.2405 2.93326 20.161 2.8408 19.9765C2.5147 19.3253 2.17974 18.6781 1.85115 18.0283C1.67841 17.6867 1.80603 17.4669 2.19552 17.4509C3.57494 17.3939 4.9549 17.3434 6.3346 17.2891C7.89312 17.2278 9.45136 17.1651 11.4517 17.0854C11.9821 17.0658 12.9546 17.0319 13.9268 16.9942C15.1636 16.9462 16.4002 16.8943 17.6368 16.8447C18.3659 16.8157 19.0951 16.7853 19.8242 16.7606C19.8312 16.7606 19.8381 16.7603 19.8447 16.7603ZM19.8447 16.0005C19.8292 16.0005 19.8134 16.0005 19.7974 16.0014C19.1803 16.0222 18.5544 16.0475 17.949 16.0716L17.6049 16.0855C17.1219 16.1047 16.6391 16.1245 16.156 16.1441C15.4153 16.1742 14.649 16.2054 13.8958 16.2347C13.1843 16.2624 12.4615 16.2884 11.9339 16.3074C11.7374 16.3145 11.5641 16.3207 11.4223 16.3259H11.4196C10.7834 16.3514 10.1921 16.375 9.6313 16.3972C8.41548 16.4458 7.36577 16.4879 6.30304 16.5297C5.79534 16.5497 5.28792 16.569 4.78023 16.5885C3.92235 16.6214 3.03541 16.6553 2.1623 16.6914C1.54471 16.7169 1.26069 17.0387 1.14608 17.2284C1.0312 17.4186 0.880052 17.8188 1.15605 18.3653C1.29418 18.6385 1.43536 18.915 1.57184 19.1826C1.76063 19.5524 1.95579 19.9347 2.14431 20.3111C2.36687 20.7553 2.7691 21 3.2768 21H3.27846C5.52239 20.9978 7.87374 20.9967 10.4676 20.9967C12.2932 20.9967 14.275 20.9973 16.5264 20.9984H16.5284C16.7952 20.9984 17.0513 20.9723 17.2891 20.921C18.2522 20.7132 19.0541 20.3051 19.6731 19.7084C20.2838 19.1199 20.7167 18.3463 20.96 17.4096C21.0525 17.0536 20.9827 16.6946 20.7688 16.4244C20.5548 16.1547 20.2184 16.0005 19.8447 16.0005Z" fill="black"/>
<path d="M8.45726 3.71078C8.60752 3.71078 8.70679 3.7844 8.79209 3.95371C9.40194 5.16813 9.81327 6.42596 10.0115 7.73456C10.1029 8.33745 10.1329 8.94212 10.1499 9.32544C10.1563 11.0684 9.85577 12.5458 9.262 13.9821C9.17366 14.1958 9.08502 14.2895 8.92839 14.2895C8.84734 14.2895 8.74777 14.2643 8.62088 14.2179C7.85135 13.9359 7.07363 13.7945 6.2874 13.7945C5.68028 13.7945 5.0686 13.8787 4.45177 14.0478C4.39348 14.0638 4.33611 14.0836 4.27631 14.0925C4.24413 14.0973 4.21286 14.0998 4.18281 14.0998C4.07717 14.0998 3.98428 14.0681 3.91507 13.9831C3.82248 13.8694 3.8325 13.7574 3.92843 13.65C4.12483 13.4302 4.32852 13.2152 4.51976 12.9923C6.20939 11.0212 7.30251 8.83804 7.8216 6.45363C7.99433 5.65984 8.07781 4.85717 8.11454 4.05119C8.12365 3.84913 8.20804 3.7415 8.38107 3.71738C8.40839 3.71357 8.43389 3.71154 8.45847 3.71154M8.45726 3C8.38653 3 8.31367 3.00508 8.24052 3.01548C7.7876 3.07844 7.2934 3.37646 7.26396 4.02352C7.2248 4.88788 7.13312 5.64106 6.98408 6.32569C6.48684 8.6111 5.42468 10.7145 3.82764 12.5775C3.71533 12.7085 3.59785 12.8372 3.47339 12.9735C3.39902 13.055 3.32221 13.139 3.24632 13.2241C2.93092 13.5772 2.91757 14.0206 3.21111 14.3819C3.4321 14.654 3.78606 14.8099 4.1819 14.8099C4.26022 14.8099 4.34127 14.8038 4.42293 14.7918C4.53525 14.7753 4.62601 14.7487 4.68642 14.7312C4.69613 14.7284 4.70585 14.7253 4.71586 14.7228C5.24376 14.5781 5.77226 14.5047 6.2868 14.5047C6.95038 14.5047 7.62095 14.6271 8.27937 14.8685C8.44633 14.9297 8.67097 15 8.92808 15C9.24986 15 9.54462 14.8883 9.75832 14.6857C9.88582 14.5649 9.98053 14.4194 10.0652 14.2141C10.7094 12.6557 11.0066 11.1014 10.9999 9.3229V9.31097L10.9993 9.29904C10.9777 8.81088 10.9437 8.23286 10.8548 7.6452C10.6505 6.29573 10.22 4.96125 9.57588 3.67854C9.2793 3.08834 8.74777 3 8.45726 3Z" fill="black"/>
<path d="M11.2032 1.77473L11.2665 1.58501L11.2664 1.58498L11.2032 1.77473ZM17.2889 6.02957L17.1347 6.15694L17.1347 6.15695L17.2889 6.02957ZM19.9335 11.192L19.7398 11.2419L19.7398 11.2419L19.9335 11.192ZM20.2673 13.1247L20.4676 13.1182L20.4664 13.1056L20.2673 13.1247ZM19.8738 13.4288L19.8252 13.6227L19.8258 13.6229L19.8738 13.4288ZM16.4025 13.1413L16.3845 12.9421L16.3844 12.9421L16.4025 13.1413ZM12.7442 14.1644L12.8319 14.3441L12.832 14.3441L12.7442 14.1644ZM12.571 14.2468L12.5033 14.0586L12.5022 14.059L12.571 14.2468ZM12.2816 14.178L12.4223 14.0358L12.4218 14.0353L12.2816 14.178ZM12.2259 13.837L12.0367 13.7721L12.0367 13.7722L12.2259 13.837ZM12.6432 12.3939L12.4481 12.3496L12.4481 12.3496L12.6432 12.3939ZM12.9485 8.50498L12.7489 8.51809L12.7489 8.5181L12.9485 8.50498ZM10.8261 2.24834L10.6592 2.3584L10.6592 2.35843L10.8261 2.24834ZM10.7919 1.84771L10.9512 1.96867L10.9513 1.96848L10.7919 1.84771ZM10.209 1.40325L10.3684 1.52404L10.3685 1.52388L10.209 1.40325ZM10.0138 2.17535L9.81658 2.20865L9.81658 2.20868L10.0138 2.17535ZM10.2155 2.65421L10.3825 2.54414L10.3825 2.54411L10.2155 2.65421ZM12.2178 8.55381L12.4173 8.54069L12.4173 8.54069L12.2178 8.55381ZM11.9292 12.2311L11.7341 12.1868L11.7341 12.1868L11.9292 12.2311ZM11.5333 13.5981L11.7225 13.663L11.7225 13.663L11.5333 13.5981ZM11.7688 14.7031L11.6285 14.8457L11.6286 14.8457L11.7688 14.7031ZM12.8203 14.9383L12.7519 14.7504L12.7519 14.7504L12.8203 14.9383ZM13.0291 14.8438L13.1206 15.0216L13.1218 15.021L13.0291 14.8438ZM13.0652 14.8254L12.9773 14.6457L12.977 14.6459L13.0652 14.8254ZM16.469 13.8735L16.4872 14.0727L16.4872 14.0726L16.469 13.8735ZM19.6959 14.1418L19.6473 14.3358L19.6475 14.3358L19.6959 14.1418ZM20.7139 13.8737L20.57 13.7348L20.57 13.7349L20.7139 13.8737ZM20.9994 13.1006L21.1993 13.0941L21.1992 13.0938L20.9994 13.1006ZM20.9986 13.0775L21.1988 13.0707L21.1978 13.0594L20.9986 13.0775ZM20.9965 13.0544L21.1957 13.0363L21.1956 13.0353L20.9965 13.0544ZM20.6428 11.0082L20.4491 11.0581L20.4491 11.0581L20.6428 11.0082ZM17.853 5.56069L17.6988 5.68805L17.6988 5.68806L17.853 5.56069ZM14.9717 2.86476L14.8563 3.02813L14.8563 3.02813L14.9717 2.86476ZM11.4342 1.07745L11.3709 1.26716L11.3709 1.26717L11.4342 1.07745ZM20.2099 17.2227L20.0163 17.1723L20.0163 17.1724L20.2099 17.2227ZM17.1233 20.1792L17.0811 19.9837L17.0809 19.9837L17.1233 20.1792ZM16.5275 20.2389L16.5274 20.4389H16.5275V20.2389ZM3.27846 20.2405L3.27846 20.4405L3.27866 20.4405L3.27846 20.2405ZM2.8408 19.9765L2.66197 20.0661L2.66199 20.0661L2.8408 19.9765ZM1.85115 18.0283L2.02963 17.938L2.02963 17.938L1.85115 18.0283ZM2.19552 17.4509L2.20373 17.6507L2.20378 17.6507L2.19552 17.4509ZM6.3346 17.2891L6.34246 17.489L6.34246 17.489L6.3346 17.2891ZM11.4517 17.0854L11.4443 16.8855L11.4437 16.8855L11.4517 17.0854ZM13.9268 16.9942L13.9345 17.194L13.9345 17.194L13.9268 16.9942ZM17.6368 16.8447L17.6288 16.6448L17.6287 16.6448L17.6368 16.8447ZM19.8242 16.7606V16.5605L19.8175 16.5607L19.8242 16.7606ZM19.7974 16.0014L19.8042 16.2013L19.8075 16.2011L19.7974 16.0014ZM17.949 16.0716L17.9411 15.8718L17.941 15.8718L17.949 16.0716ZM17.6049 16.0855L17.6129 16.2853L17.613 16.2853L17.6049 16.0855ZM16.156 16.1441L16.148 15.9442L16.1479 15.9442L16.156 16.1441ZM13.8958 16.2347L13.9035 16.4346L13.9035 16.4346L13.8958 16.2347ZM11.9339 16.3074L11.9411 16.5073L11.9411 16.5073L11.9339 16.3074ZM11.4223 16.3259V16.526L11.4296 16.5257L11.4223 16.3259ZM11.4196 16.3259V16.1257L11.4116 16.126L11.4196 16.3259ZM9.6313 16.3972L9.62337 16.1974L9.62331 16.1974L9.6313 16.3972ZM6.30304 16.5297L6.29518 16.3298L6.29513 16.3298L6.30304 16.5297ZM4.78023 16.5885L4.78788 16.7884L4.78792 16.7884L4.78023 16.5885ZM2.1623 16.6914L2.17055 16.8912L2.17056 16.8912L2.1623 16.6914ZM1.14608 17.2284L0.974903 17.1249L0.974883 17.125L1.14608 17.2284ZM1.15605 18.3653L0.977522 18.4554L0.977558 18.4555L1.15605 18.3653ZM1.57184 19.1826L1.39368 19.2734L1.3937 19.2735L1.57184 19.1826ZM2.14431 20.3111L1.96549 20.4006L1.9655 20.4007L2.14431 20.3111ZM3.27846 21L3.27846 21.2L3.27865 21.2L3.27846 21ZM16.5264 20.9984L16.5263 21.1984H16.5264V20.9984ZM17.2891 20.921L17.3312 21.1165L17.3313 21.1165L17.2891 20.921ZM19.6731 19.7084L19.5343 19.5644L19.5343 19.5644L19.6731 19.7084ZM20.96 17.4096L21.1536 17.4599L21.1536 17.4599L20.96 17.4096ZM20.7688 16.4244L20.9256 16.3002L20.9254 16.3001L20.7688 16.4244ZM8.79209 3.95371L8.97082 3.86396L8.9707 3.86373L8.79209 3.95371ZM10.0115 7.73456L9.81375 7.76451L9.81375 7.76453L10.0115 7.73456ZM10.1499 9.32544L10.3501 9.3247L10.3497 9.31657L10.1499 9.32544ZM9.262 13.9821L9.07717 13.9057L9.07716 13.9057L9.262 13.9821ZM8.62088 14.2179L8.55206 14.4057L8.55212 14.4057L8.62088 14.2179ZM4.45177 14.0478L4.3989 13.8549L4.39884 13.8549L4.45177 14.0478ZM4.27631 14.0925L4.24692 13.8947L4.24666 13.8947L4.27631 14.0925ZM3.91507 13.9831L4.07019 13.8568L4.07017 13.8568L3.91507 13.9831ZM3.92843 13.65L3.77928 13.5168L3.77927 13.5168L3.92843 13.65ZM4.51976 12.9923L4.67155 13.1225L4.67161 13.1225L4.51976 12.9923ZM7.8216 6.45363L8.01702 6.49617L8.01703 6.49615L7.8216 6.45363ZM8.11454 4.05119L8.31433 4.0603L8.31434 4.0602L8.11454 4.05119ZM8.38107 3.71738L8.40867 3.91547L8.38107 3.71738ZM8.24052 3.01548L8.26805 3.21358L8.26869 3.21349L8.24052 3.01548ZM7.26396 4.02352L7.06417 4.01443L7.06416 4.01447L7.26396 4.02352ZM6.98408 6.32569L6.78865 6.28314L6.78865 6.28317L6.98408 6.32569ZM3.82764 12.5775L3.97947 12.7077L3.97949 12.7077L3.82764 12.5775ZM3.47339 12.9735L3.32569 12.8387L3.32567 12.8387L3.47339 12.9735ZM3.24632 13.2241L3.39548 13.3573L3.39554 13.3572L3.24632 13.2241ZM3.21111 14.3819L3.36636 14.2558L3.36632 14.2557L3.21111 14.3819ZM4.42293 14.7918L4.45184 14.9897L4.452 14.9897L4.42293 14.7918ZM4.68642 14.7312L4.63117 14.539L4.63072 14.5391L4.68642 14.7312ZM4.71586 14.7228L4.765 14.9167L4.76873 14.9157L4.71586 14.7228ZM8.27937 14.8685L8.21052 15.0563L8.21056 15.0563L8.27937 14.8685ZM9.75832 14.6857L9.62075 14.5406L9.62073 14.5406L9.75832 14.6857ZM10.0652 14.2141L9.88039 14.1377L9.88033 14.1378L10.0652 14.2141ZM10.9999 9.3229L10.7999 9.3229L10.7999 9.32365L10.9999 9.3229ZM10.9999 9.31097H11.2001L11.1996 9.30079L10.9999 9.31097ZM10.9993 9.29904L10.7995 9.30786L10.7995 9.30921L10.9993 9.29904ZM10.8548 7.6452L11.0525 7.61527L11.0525 7.61526L10.8548 7.6452ZM9.57588 3.67854L9.75461 3.58879L9.75459 3.58874L9.57588 3.67854ZM11.009 1.93509C11.0371 1.93509 11.0767 1.94341 11.1399 1.96448L11.2664 1.58498C11.1957 1.56142 11.1049 1.53509 11.009 1.53509V1.93509ZM11.1398 1.96445C13.5476 2.76789 15.5204 4.20256 17.1347 6.15694L17.4431 5.9022C15.786 3.89604 13.7523 2.41452 11.2665 1.58501L11.1398 1.96445ZM17.1347 6.15695C18.3753 7.65878 19.2526 9.35076 19.7398 11.2419L20.1272 11.1421C19.6249 9.19238 18.7199 7.44783 17.4431 5.9022L17.1347 6.15695ZM19.7398 11.2419C19.8992 11.8601 20.0053 12.4887 20.0682 13.1439L20.4664 13.1056C20.4017 12.4318 20.2922 11.7825 20.1272 11.1421L19.7398 11.2419ZM20.0674 13.1313C20.0693 13.187 20.0536 13.2128 20.045 13.2224C20.0379 13.2303 20.0221 13.2429 19.9824 13.2429V13.6429C20.1209 13.6429 20.2506 13.5924 20.343 13.4892C20.434 13.3877 20.4717 13.2544 20.4672 13.1182L20.0674 13.1313ZM19.9824 13.2429C19.9668 13.2429 19.9466 13.2407 19.9219 13.2346L19.8258 13.6229C19.8774 13.6357 19.93 13.6429 19.9824 13.6429V13.2429ZM19.9225 13.2348C19.0568 13.0177 18.1808 12.9008 17.2944 12.9008V13.3008C18.1453 13.3008 18.9887 13.413 19.8252 13.6227L19.9225 13.2348ZM17.2944 12.9008C16.9922 12.9008 16.6887 12.9145 16.3845 12.9421L16.4206 13.3405C16.7128 13.314 17.0043 13.3008 17.2944 13.3008V12.9008ZM16.3844 12.9421C15.0795 13.0611 13.8354 13.4085 12.6563 13.9847L12.832 14.3441C13.9673 13.7893 15.1642 13.4551 16.4207 13.3405L16.3844 12.9421ZM12.6564 13.9846C12.5795 14.0222 12.5499 14.0418 12.5033 14.0586L12.6386 14.435C12.7118 14.4087 12.7937 14.3627 12.8319 14.3441L12.6564 13.9846ZM12.5022 14.059C12.4895 14.0636 12.4806 14.0647 12.4749 14.0647V14.4647C12.5311 14.4647 12.5865 14.4541 12.6398 14.4346L12.5022 14.059ZM12.4749 14.0647C12.466 14.0647 12.449 14.0623 12.4223 14.0358L12.1409 14.3202C12.2272 14.4056 12.341 14.4647 12.4749 14.4647V14.0647ZM12.4218 14.0353C12.4034 14.0173 12.4 14.0051 12.3987 13.9941C12.3967 13.9777 12.3989 13.9491 12.4151 13.9018L12.0367 13.7722C12.0099 13.8501 11.9898 13.9428 12.0014 14.041C12.0137 14.1446 12.0596 14.2403 12.1414 14.3207L12.4218 14.0353ZM12.415 13.9019C12.5794 13.4229 12.7253 12.9362 12.8382 12.4381L12.4481 12.3496C12.3392 12.8303 12.1978 13.3028 12.0367 13.7721L12.415 13.9019ZM12.8382 12.4381C13.1334 11.1377 13.2357 9.8236 13.1481 8.49185L12.7489 8.5181C12.834 9.81167 12.7348 11.0871 12.4481 12.3496L12.8382 12.4381ZM13.1481 8.49187C12.9961 6.17808 12.2637 4.06533 10.9931 2.13825L10.6592 2.35843C11.8929 4.22965 12.6016 6.27592 12.7489 8.51809L13.1481 8.49187ZM10.9931 2.13827C10.9517 2.07535 10.9366 2.04029 10.9329 2.01825C10.9315 2.01016 10.932 2.00544 10.9331 2.00134C10.9342 1.99685 10.9379 1.98614 10.9512 1.96867L10.6326 1.72676C10.5469 1.83956 10.5177 1.96196 10.5385 2.08509C10.5571 2.19464 10.6132 2.28874 10.6592 2.3584L10.9931 2.13827ZM10.9513 1.96848C10.9668 1.94796 10.9776 1.94182 10.9818 1.93978C10.9862 1.93766 10.9936 1.93509 11.009 1.93509V1.53509C10.8699 1.53509 10.7359 1.59041 10.6324 1.72695L10.9513 1.96848ZM11.009 0.8C10.6259 0.8 10.2831 0.973652 10.0494 1.28261L10.3685 1.52388C10.5283 1.31251 10.7543 1.2 11.009 1.2V0.8ZM10.0496 1.28245C9.84556 1.55165 9.76128 1.88114 9.81658 2.20865L10.211 2.14206C10.1747 1.92717 10.2286 1.7085 10.3684 1.52404L10.0496 1.28245ZM9.81658 2.20868C9.85885 2.45876 9.97378 2.65095 10.0485 2.76431L10.3825 2.54411C10.318 2.44639 10.2394 2.30989 10.211 2.14202L9.81658 2.20868ZM10.0485 2.76428C11.2198 4.54119 11.8819 6.49264 12.0182 8.56693L12.4173 8.54069C12.2763 6.39558 11.591 4.37756 10.3825 2.54414L10.0485 2.76428ZM12.0182 8.56693C12.0983 9.78591 12.0027 11.0039 11.7341 12.1868L12.1242 12.2754C12.4014 11.0545 12.4999 9.7979 12.4173 8.54069L12.0182 8.56693ZM11.7341 12.1868C11.6397 12.6028 11.5124 13.043 11.3442 13.5332L11.7225 13.663C11.8944 13.1619 12.0261 12.7078 12.1242 12.2753L11.7341 12.1868ZM11.3442 13.5332C11.1791 14.0142 11.2769 14.4998 11.6285 14.8457L11.9091 14.5605C11.6767 14.332 11.6029 14.0115 11.7225 13.663L11.3442 13.5332ZM11.6286 14.8457C11.8586 15.0719 12.1589 15.2 12.4752 15.2V14.8C12.2693 14.8 12.0683 14.717 11.909 14.5605L11.6286 14.8457ZM12.4752 15.2C12.6156 15.2 12.7549 15.175 12.8887 15.1262L12.7519 14.7504C12.6607 14.7836 12.5677 14.8 12.4752 14.8V15.2ZM12.8887 15.1263C12.9884 15.09 13.0691 15.0481 13.1206 15.0216L12.9376 14.6659C12.8859 14.6925 12.8254 14.7236 12.7519 14.7504L12.8887 15.1263ZM13.1218 15.021C13.1329 15.0152 13.1431 15.01 13.1533 15.0049L12.977 14.6459C12.9627 14.6529 12.9493 14.6598 12.9363 14.6666L13.1218 15.021ZM13.153 15.0051C14.2012 14.4926 15.323 14.1789 16.4872 14.0727L16.4508 13.6743C15.2383 13.7849 14.0693 14.1118 12.9773 14.6457L13.153 15.0051ZM16.4872 14.0726C16.754 14.0483 17.0255 14.0359 17.2944 14.0359V13.6359C17.0134 13.6359 16.7297 13.6488 16.4508 13.6743L16.4872 14.0726ZM17.2944 14.0359C18.0614 14.0359 18.8532 14.1366 19.6473 14.3358L19.7446 13.9478C18.9207 13.7411 18.0962 13.6359 17.2944 13.6359V14.0359ZM19.6475 14.3358C19.758 14.3634 19.8706 14.378 19.9821 14.378V13.978C19.9054 13.978 19.8253 13.9679 19.7443 13.9477L19.6475 14.3358ZM19.9821 14.378C20.3168 14.378 20.6295 14.2494 20.8579 14.0126L20.57 13.7349C20.42 13.8903 20.2126 13.978 19.9821 13.978V14.378ZM20.8578 14.0126C21.092 13.77 21.2106 13.4417 21.1993 13.0941L20.7995 13.1071C20.8075 13.3549 20.7236 13.5758 20.57 13.7348L20.8578 14.0126ZM21.1992 13.0938L21.1985 13.0707L20.7987 13.0843L20.7995 13.1074L21.1992 13.0938ZM21.1978 13.0594L21.1957 13.0363L20.7973 13.0724L20.7994 13.0955L21.1978 13.0594ZM21.1956 13.0353C21.1253 12.3037 21.008 11.6241 20.8364 10.9583L20.4491 11.0581C20.6151 11.7023 20.729 12.3612 20.7974 13.0735L21.1956 13.0353ZM20.8364 10.9583C20.3149 8.93336 19.3627 7.07428 18.0072 5.43332L17.6988 5.68806C19.0177 7.28464 19.9424 9.09102 20.4491 11.0581L20.8364 10.9583ZM18.0072 5.43333C17.127 4.36759 16.1446 3.44818 15.087 2.70139L14.8563 3.02813C15.8829 3.75309 16.8396 4.64776 17.6988 5.68805L18.0072 5.43333ZM15.087 2.70139C13.9899 1.92658 12.7822 1.31628 11.4975 0.887724L11.3709 1.26717C12.6188 1.68344 13.7913 2.27606 14.8563 3.02813L15.087 2.70139ZM11.4975 0.887729C11.3822 0.849262 11.2125 0.8 11.009 0.8V1.2C11.1488 1.2 11.2706 1.2337 11.3709 1.26716L11.4975 0.887729ZM19.8447 16.9603C19.9375 16.9603 19.982 16.9916 20.001 17.0156C20.0194 17.0387 20.0387 17.0862 20.0163 17.1723L20.4034 17.273C20.4505 17.0921 20.4265 16.9084 20.3145 16.7671C20.2032 16.6267 20.0304 16.5603 19.8447 16.5603V16.9603ZM20.0163 17.1724C19.8161 17.943 19.4739 18.5583 18.9918 19.0231C18.5097 19.4877 17.8774 19.8118 17.0811 19.9837L17.1655 20.3747C18.0221 20.1898 18.7253 19.8355 19.2694 19.3111C19.8134 18.7867 20.1881 18.1022 20.4034 17.2729L20.0163 17.1724ZM17.0809 19.9837C16.9042 20.022 16.7188 20.0389 16.5292 20.0389V20.4389C16.7421 20.4389 16.9564 20.42 17.1656 20.3747L17.0809 19.9837ZM16.5292 20.0389H16.5275V20.4389H16.5292V20.0389ZM16.5276 20.0389C14.5082 20.0378 12.4879 20.0373 10.4684 20.0373V20.4373C12.4878 20.4373 14.508 20.4378 16.5274 20.4389L16.5276 20.0389ZM10.4684 20.0373C8.07162 20.0373 5.67536 20.0381 3.27825 20.0405L3.27866 20.4405C5.67559 20.4381 8.07171 20.4373 10.4684 20.4373V20.0373ZM3.27846 20.0405C3.1953 20.0405 3.14797 20.0252 3.11717 20.0066C3.08694 19.9883 3.05399 19.9555 3.0196 19.8869L2.66199 20.0661C2.72006 20.182 2.7984 20.2812 2.91011 20.3488C3.02125 20.4161 3.14652 20.4405 3.27846 20.4405V20.0405ZM3.01963 19.887C2.69373 19.2361 2.35664 18.5848 2.02963 17.938L1.67267 18.1185C2.00284 18.7715 2.33566 19.4144 2.66197 20.0661L3.01963 19.887ZM2.02963 17.938C1.95526 17.7909 1.97733 17.7316 1.9846 17.7194C1.99215 17.7066 2.03492 17.6576 2.20373 17.6507L2.18731 17.251C1.96663 17.2601 1.75084 17.329 1.6404 17.5156C1.52968 17.7026 1.57431 17.924 1.67267 18.1185L2.02963 17.938ZM2.20378 17.6507C3.58303 17.5937 4.96192 17.5433 6.34246 17.489L6.32674 17.0893C4.94788 17.1435 3.56684 17.194 2.18727 17.251L2.20378 17.6507ZM6.34246 17.489C7.90105 17.4277 9.45942 17.365 11.4597 17.2852L11.4437 16.8855C9.4433 16.9653 7.88518 17.028 6.32673 17.0893L6.34246 17.489ZM11.4591 17.2852C11.9889 17.2657 12.9621 17.2318 13.9345 17.194L13.919 16.7943C12.947 16.8321 11.9753 16.8659 11.4443 16.8855L11.4591 17.2852ZM13.9345 17.194C15.1715 17.146 16.4088 17.0942 17.6448 17.0445L17.6287 16.6448C16.3916 16.6945 15.1557 16.7463 13.919 16.7943L13.9345 17.194ZM17.6447 17.0445C18.3744 17.0155 19.1026 16.9851 19.831 16.9605L19.8175 16.5607C19.0875 16.5854 18.3575 16.6158 17.6288 16.6448L17.6447 17.0445ZM19.8242 16.9606C19.83 16.9606 19.8354 16.9605 19.8386 16.9604C19.8424 16.9603 19.8437 16.9603 19.8447 16.9603V16.5603C19.8391 16.5603 19.8336 16.5604 19.8306 16.5605C19.8269 16.5605 19.8254 16.5606 19.8242 16.5606V16.9606ZM19.8447 15.8005C19.83 15.8005 19.8092 15.8005 19.7873 15.8016L19.8075 16.2011C19.8177 16.2006 19.8284 16.2005 19.8447 16.2005V15.8005ZM19.7906 15.8015C19.1728 15.8224 18.5463 15.8477 17.9411 15.8718L17.957 16.2715C18.5626 16.2473 19.1878 16.2221 19.8042 16.2012L19.7906 15.8015ZM17.941 15.8718L17.5969 15.8856L17.613 16.2853L17.9571 16.2715L17.941 15.8718ZM17.597 15.8856C17.1138 15.9049 16.6309 15.9247 16.148 15.9442L16.1641 16.3439C16.6473 16.3244 17.1299 16.3046 17.6129 16.2853L17.597 15.8856ZM16.1479 15.9442C15.4071 15.9744 14.641 16.0056 13.888 16.0349L13.9035 16.4346C14.657 16.4052 15.4234 16.374 16.1642 16.3439L16.1479 15.9442ZM13.888 16.0349C13.1769 16.0625 12.4544 16.0886 11.9267 16.1076L11.9411 16.5073C12.4687 16.4883 13.1918 16.4622 13.9035 16.4346L13.888 16.0349ZM11.9267 16.1076C11.7302 16.1146 11.5569 16.1209 11.4151 16.126L11.4296 16.5257C11.5713 16.5206 11.7446 16.5144 11.9411 16.5073L11.9267 16.1076ZM11.4116 16.126C10.7754 16.1515 10.1842 16.1752 9.62337 16.1974L9.63922 16.5971C10.2001 16.5748 10.7914 16.5512 11.4276 16.5257L11.4116 16.126ZM9.62331 16.1974C8.40746 16.246 7.35783 16.288 6.29518 16.3298L6.3109 16.7295C7.3737 16.6877 8.4235 16.6457 9.63928 16.5971L9.62331 16.1974ZM6.29513 16.3298C5.78758 16.3499 5.28037 16.3691 4.77254 16.3887L4.78792 16.7884C5.29548 16.7689 5.8031 16.7496 6.31094 16.7295L6.29513 16.3298ZM4.77258 16.3887C3.91476 16.4215 3.0275 16.4554 2.15404 16.4915L2.17056 16.8912C3.04331 16.8551 3.92994 16.8212 4.78788 16.7884L4.77258 16.3887ZM2.15405 16.4915C1.45515 16.5204 1.11611 16.8912 0.974903 17.1249L1.31726 17.3318C1.40526 17.1862 1.63426 16.9134 2.17055 16.8912L2.15405 16.4915ZM0.974883 17.125C0.833271 17.3594 0.663456 17.8336 0.977522 18.4554L1.33457 18.2751C1.09665 17.804 1.22913 17.4777 1.31728 17.3318L0.974883 17.125ZM0.977558 18.4555C1.1159 18.7292 1.25727 19.006 1.39368 19.2734L1.75 19.0917C1.61346 18.824 1.47247 18.5479 1.33453 18.275L0.977558 18.4555ZM1.3937 19.2735C1.58256 19.6434 1.77737 20.0251 1.96549 20.4006L2.32313 20.2215C2.13421 19.8443 1.9387 19.4613 1.74997 19.0916L1.3937 19.2735ZM1.9655 20.4007C2.22289 20.9144 2.69548 21.2 3.2768 21.2V20.8C2.84272 20.8 2.51085 20.5961 2.32312 20.2215L1.9655 20.4007ZM3.2768 21.2H3.27846V20.8H3.2768V21.2ZM3.27865 21.2C5.52252 21.1978 7.87379 21.1967 10.4676 21.1967V20.7967C7.87368 20.7967 5.52227 20.7978 3.27826 20.8L3.27865 21.2ZM10.4676 21.1967C12.2932 21.1967 14.2749 21.1973 16.5263 21.1984L16.5265 20.7984C14.2751 20.7973 12.2933 20.7967 10.4676 20.7967V21.1967ZM16.5264 21.1984H16.5284V20.7984H16.5264V21.1984ZM16.5284 21.1984C16.8081 21.1984 17.0783 21.1711 17.3312 21.1165L17.2469 20.7255C17.0242 20.7736 16.7824 20.7984 16.5284 20.7984V21.1984ZM17.3313 21.1165C18.3253 20.902 19.1624 20.4785 19.8119 19.8524L19.5343 19.5644C18.9458 20.1317 18.179 20.5244 17.2469 20.7255L17.3313 21.1165ZM19.8119 19.8524C20.4527 19.2348 20.9024 18.4271 21.1536 17.4599L20.7665 17.3593C20.5311 18.2655 20.1148 19.0049 19.5343 19.5644L19.8119 19.8524ZM21.1536 17.4599C21.2606 17.0479 21.1814 16.6233 20.9256 16.3002L20.612 16.5485C20.7841 16.7659 20.8444 17.0593 20.7665 17.3593L21.1536 17.4599ZM20.9254 16.3001C20.6699 15.978 20.2734 15.8005 19.8447 15.8005V16.2005C20.1635 16.2005 20.4397 16.3314 20.6121 16.5487L20.9254 16.3001ZM8.45726 3.91078C8.49675 3.91078 8.51621 3.91942 8.53119 3.93035C8.55031 3.94429 8.57867 3.97462 8.61347 4.0437L8.9707 3.86373C8.9202 3.76349 8.85628 3.67235 8.76688 3.60716C8.67334 3.53895 8.56804 3.51078 8.45726 3.51078V3.91078ZM8.61336 4.04347C9.2144 5.24034 9.61888 6.47807 9.81375 7.76451L10.2092 7.7046C10.0077 6.37385 9.58948 5.09593 8.97082 3.86396L8.61336 4.04347ZM9.81375 7.76453C9.90339 8.35601 9.93313 8.95142 9.95011 9.3343L10.3497 9.31657C10.3327 8.93282 10.3023 8.31889 10.2092 7.70459L9.81375 7.76453ZM9.94992 9.32617C9.9562 11.0434 9.66054 12.4945 9.07717 13.9057L9.44683 14.0585C10.051 12.597 10.3564 11.0933 10.3499 9.3247L9.94992 9.32617ZM9.07716 13.9057C9.03612 14.005 9.00485 14.0502 8.98307 14.0709C8.97048 14.0829 8.95977 14.0895 8.92839 14.0895V14.4895C9.05364 14.4895 9.16557 14.4492 9.25855 14.3609C9.34233 14.2813 9.39954 14.1729 9.44684 14.0585L9.07716 13.9057ZM8.92839 14.0895C8.88389 14.0895 8.81158 14.0747 8.68964 14.0301L8.55212 14.4057C8.68395 14.454 8.81079 14.4895 8.92839 14.4895V14.0895ZM8.6897 14.0301C7.89914 13.7404 7.09816 13.5945 6.2874 13.5945V13.9945C7.04909 13.9945 7.80356 14.1314 8.55206 14.4057L8.6897 14.0301ZM6.2874 13.5945C5.66153 13.5945 5.03209 13.6814 4.3989 13.8549L4.50463 14.2407C5.10512 14.0761 5.69903 13.9945 6.2874 13.9945V13.5945ZM4.39884 13.8549C4.32385 13.8755 4.29084 13.8881 4.24692 13.8947L4.3057 14.2903C4.38137 14.2791 4.46311 14.2521 4.50469 14.2407L4.39884 13.8549ZM4.24666 13.8947C4.22299 13.8982 4.2017 13.8998 4.18281 13.8998V14.2998C4.22403 14.2998 4.26528 14.2964 4.30596 14.2903L4.24666 13.8947ZM4.18281 13.8998C4.12076 13.8998 4.09206 13.8837 4.07019 13.8568L3.75995 14.1093C3.8765 14.2525 4.03358 14.2998 4.18281 14.2998V13.8998ZM4.07017 13.8568C4.05815 13.842 4.05351 13.8323 4.05183 13.8278C4.05038 13.824 4.05085 13.8234 4.05078 13.8247C4.0506 13.8281 4.04943 13.8148 4.07758 13.7833L3.77927 13.5168C3.71149 13.5927 3.65736 13.689 3.65133 13.8037C3.64519 13.9207 3.69074 14.0243 3.75997 14.1093L4.07017 13.8568ZM4.07757 13.7833C4.26793 13.5702 4.47938 13.3465 4.67155 13.1225L4.36798 12.8621C4.17766 13.0839 3.98173 13.2902 3.77928 13.5168L4.07757 13.7833ZM4.67161 13.1225C6.38184 11.1273 7.49058 8.91435 8.01702 6.49617L7.62618 6.41109C7.11444 8.76174 6.03694 10.915 4.36792 12.8621L4.67161 13.1225ZM8.01703 6.49615C8.19283 5.68823 8.27726 4.87377 8.31433 4.0603L7.91475 4.04209C7.87836 4.84056 7.79583 5.63145 7.62617 6.41111L8.01703 6.49615ZM8.31434 4.0602C8.31784 3.98242 8.33493 3.95202 8.34289 3.94201C8.34735 3.9364 8.35973 3.92229 8.40867 3.91547L8.35346 3.51929C8.22937 3.53659 8.11304 3.58835 8.02977 3.6931C7.95 3.79345 7.92034 3.91791 7.91474 4.04219L8.31434 4.0602ZM8.40867 3.91547C8.42882 3.91266 8.44492 3.91154 8.45847 3.91154V3.51154C8.42285 3.51154 8.38796 3.51449 8.35346 3.51929L8.40867 3.91547ZM8.45726 2.8C8.37705 2.8 8.29478 2.80575 8.21235 2.81748L8.26869 3.21349C8.33257 3.2044 8.39601 3.2 8.45726 3.2V2.8ZM8.21298 2.81739C7.9563 2.85307 7.68007 2.95605 7.46064 3.15092C7.23693 3.34957 7.08137 3.63627 7.06417 4.01443L7.46375 4.03262C7.47599 3.76371 7.58225 3.57787 7.72624 3.45001C7.87449 3.31836 8.07182 3.24086 8.26805 3.21358L8.21298 2.81739ZM7.06416 4.01447C7.0254 4.87004 6.93483 5.61171 6.78865 6.28314L7.1795 6.36823C7.33142 5.6704 7.4242 4.90573 7.46375 4.03257L7.06416 4.01447ZM6.78865 6.28317C6.29881 8.53459 5.25238 10.6082 3.6758 12.4473L3.97949 12.7077C5.59698 10.8208 6.67487 8.68762 7.1795 6.36821L6.78865 6.28317ZM3.67582 12.4473C3.56587 12.5755 3.45053 12.7019 3.32569 12.8387L3.62109 13.1084C3.74517 12.9725 3.86478 12.8415 3.97947 12.7077L3.67582 12.4473ZM3.32567 12.8387C3.25151 12.9199 3.17389 13.0049 3.0971 13.0909L3.39554 13.3572C3.47054 13.2732 3.54652 13.1901 3.62111 13.1083L3.32567 12.8387ZM3.09716 13.0908C2.91216 13.2979 2.80813 13.5409 2.80046 13.7939C2.79277 14.0471 2.88219 14.2942 3.0559 14.508L3.36632 14.2557C3.24648 14.1083 3.19581 13.9531 3.20027 13.806C3.20474 13.6586 3.26508 13.5033 3.39548 13.3573L3.09716 13.0908ZM3.05586 14.508C3.3201 14.8333 3.73471 15.0099 4.1819 15.0099V14.6099C3.8374 14.6099 3.5441 14.4747 3.36636 14.2558L3.05586 14.508ZM4.1819 15.0099C4.27047 15.0099 4.3612 15.003 4.45184 14.9897L4.39401 14.5939C4.32134 14.6046 4.24996 14.6099 4.1819 14.6099V15.0099ZM4.452 14.9897C4.57914 14.971 4.68151 14.9408 4.74212 14.9233L4.63072 14.5391C4.57051 14.5565 4.49135 14.5796 4.39386 14.594L4.452 14.9897ZM4.74167 14.9234C4.75759 14.9188 4.75895 14.9182 4.76499 14.9167L4.66674 14.5289C4.65274 14.5325 4.63467 14.5379 4.63117 14.539L4.74167 14.9234ZM4.76873 14.9157C5.2805 14.7754 5.79122 14.7047 6.2868 14.7047V14.3047C5.75329 14.3047 5.20702 14.3808 4.663 14.5299L4.76873 14.9157ZM6.2868 14.7047C6.9256 14.7047 7.57291 14.8225 8.21052 15.0563L8.34822 14.6807C7.66899 14.4317 6.97516 14.3047 6.2868 14.3047V14.7047ZM8.21056 15.0563C8.38458 15.1201 8.63558 15.2 8.92808 15.2V14.8C8.70636 14.8 8.50808 14.7393 8.34818 14.6807L8.21056 15.0563ZM8.92808 15.2C9.29595 15.2 9.64151 15.072 9.89591 14.8309L9.62073 14.5406C9.44772 14.7046 9.20376 14.8 8.92808 14.8V15.2ZM9.8959 14.8309C10.0485 14.6863 10.1574 14.5151 10.2501 14.2903L9.88033 14.1378C9.80366 14.3237 9.72318 14.4435 9.62075 14.5406L9.8959 14.8309ZM10.2501 14.2905C10.9049 12.7063 11.2067 11.1256 11.1999 9.32215L10.7999 9.32365C10.8065 11.0771 10.5139 12.6051 9.88039 14.1377L10.2501 14.2905ZM11.1999 9.3229V9.31097H10.7999V9.3229H11.1999ZM11.1996 9.30079L11.199 9.28886L10.7995 9.30921L10.8001 9.32114L11.1996 9.30079ZM11.1991 9.29021C11.1775 8.80038 11.1431 8.21376 11.0525 7.61527L10.657 7.67513C10.7443 8.25197 10.778 8.82138 10.7995 9.30786L11.1991 9.29021ZM11.0525 7.61526C10.8449 6.2439 10.4077 4.8893 9.75461 3.58879L9.39715 3.7683C10.0324 5.03319 10.4561 6.34757 10.657 7.67514L11.0525 7.61526ZM9.75459 3.58874C9.40914 2.90128 8.78313 2.8 8.45726 2.8V3.2C8.7124 3.2 9.14947 3.2754 9.39718 3.76834L9.75459 3.58874ZM11.4223 16.1259H11.4196V16.5259H11.4223V16.1259Z" fill="black" mask="url(#path-1-outside-1_612_9688)"/>
</svg>
