<svg width="18" height="24" viewBox="0 0 18 24" fill="none" xmlns="http://www.w3.org/2000/svg">
<path fill-rule="evenodd" clip-rule="evenodd" d="M9.53404 12.3114C7.1769 11.0024 4.36336 10.6921 1.75 11.6493V2.38462C4.10683 1.4532 6.68066 1.5344 8.80298 2.71148C10.9999 4.02398 13.7751 4.33551 16.25 3.51996V12.8007C14.0673 13.5505 11.5096 13.3445 9.53404 12.3114ZM0.25 2V1.88854C0.25 1.59444 0.421896 1.32748 0.689636 1.20577C3.54665 -0.0929349 6.8217 -0.108062 9.54254 1.4064C9.54955 1.41031 9.5565 1.41432 9.56338 1.41845C11.6614 2.67608 14.4152 2.83275 16.6716 1.7338C16.904 1.6206 17.1784 1.63509 17.3976 1.77216C17.6168 1.90923 17.75 2.14954 17.75 2.40808V13.3177C17.75 13.6203 17.5682 13.8933 17.2889 14.0098C14.5899 15.1366 11.3342 14.9494 8.82941 13.6356L8.81302 13.6267C6.65358 12.4248 4.07486 12.2232 1.75 13.2681V23C1.75 23.4142 1.41421 23.75 1 23.75C0.585786 23.75 0.25 23.4142 0.25 23V12.7982V2Z" fill="#26282A"/>
</svg>
